<svg width="16" height="17" viewBox="0 0 16 17" fill="none" xmlns="http://www.w3.org/2000/svg">
<path d="M5.33387 15.1667H10.6672C13.3472 15.1667 13.8272 14.0933 13.9672 12.7867L14.4672 7.45333C14.6472 5.82667 14.1805 4.5 11.3339 4.5H4.6672C1.82054 4.5 1.35387 5.82667 1.53387 7.45333L2.03387 12.7867C2.17387 14.0933 2.65387 15.1667 5.33387 15.1667Z" stroke="#9CA5B3" stroke-width="1.5" stroke-miterlimit="10" stroke-linecap="round" stroke-linejoin="round"/>
<path d="M5.33398 4.4987V3.96536C5.33398 2.78536 5.33398 1.83203 7.46732 1.83203H8.53398C10.6673 1.83203 10.6673 2.78536 10.6673 3.96536V4.4987" stroke="#9CA5B3" stroke-width="1.5" stroke-miterlimit="10" stroke-linecap="round" stroke-linejoin="round"/>
<path d="M9.33268 9.16667V9.83333C9.33268 9.84 9.33268 9.84 9.33268 9.84667C9.33268 10.5733 9.32602 11.1667 7.99935 11.1667C6.67935 11.1667 6.66602 10.58 6.66602 9.85333V9.16667C6.66602 8.5 6.66602 8.5 7.33268 8.5H8.66602C9.33268 8.5 9.33268 8.5 9.33268 9.16667Z" stroke="#9CA5B3" stroke-width="1.5" stroke-miterlimit="10" stroke-linecap="round" stroke-linejoin="round"/>
<path d="M14.434 7.83203C12.894 8.95203 11.134 9.6187 9.33398 9.84536" stroke="#9CA5B3" stroke-width="1.5" stroke-miterlimit="10" stroke-linecap="round" stroke-linejoin="round"/>
<path d="M1.74609 8.01172C3.24609 9.03839 4.93943 9.65838 6.66609 9.85172" stroke="#9CA5B3" stroke-width="1.5" stroke-miterlimit="10" stroke-linecap="round" stroke-linejoin="round"/>
</svg>
