<svg width="67" height="27" viewBox="0 0 67 27" fill="none" xmlns="http://www.w3.org/2000/svg">
<rect width="67" height="27" rx="8" fill="#EDF4FF"/>
<path d="M15.508 9.728V18.5H13.972V9.728H15.508ZM17.44 15.476H15.136V14.108H17.116C17.644 14.108 18.044 13.976 18.316 13.712C18.596 13.44 18.736 13.064 18.736 12.584C18.736 12.104 18.596 11.736 18.316 11.48C18.044 11.224 17.652 11.096 17.14 11.096H14.992V9.728H17.44C18.032 9.728 18.544 9.848 18.976 10.088C19.408 10.328 19.744 10.664 19.984 11.096C20.224 11.52 20.344 12.02 20.344 12.596C20.344 13.156 20.224 13.656 19.984 14.096C19.744 14.528 19.408 14.868 18.976 15.116C18.544 15.356 18.032 15.476 17.44 15.476ZM23.1721 18.5H21.6361V9.728H24.9841C25.9761 9.728 26.7481 9.968 27.3001 10.448C27.8601 10.928 28.1401 11.6 28.1401 12.464C28.1401 13.048 28.0041 13.548 27.7321 13.964C27.4681 14.372 27.0761 14.684 26.5561 14.9L28.2241 18.5H26.5441L25.0561 15.224H23.1721V18.5ZM23.1721 11.096V13.868H24.9841C25.4721 13.868 25.8521 13.744 26.1241 13.496C26.3961 13.248 26.5321 12.904 26.5321 12.464C26.5321 12.024 26.3961 11.688 26.1241 11.456C25.8521 11.216 25.4721 11.096 24.9841 11.096H23.1721ZM37.6437 14.108C37.6437 14.996 37.4637 15.784 37.1037 16.472C36.7437 17.152 36.2437 17.684 35.6037 18.068C34.9637 18.452 34.2237 18.644 33.3837 18.644C32.5517 18.644 31.8157 18.452 31.1757 18.068C30.5357 17.684 30.0357 17.152 29.6757 16.472C29.3237 15.792 29.1477 15.008 29.1477 14.12C29.1477 13.224 29.3277 12.436 29.6877 11.756C30.0477 11.068 30.5437 10.532 31.1757 10.148C31.8157 9.764 32.5557 9.572 33.3957 9.572C34.2357 9.572 34.9717 9.764 35.6037 10.148C36.2437 10.532 36.7437 11.064 37.1037 11.744C37.4637 12.424 37.6437 13.212 37.6437 14.108ZM36.0357 14.108C36.0357 13.484 35.9277 12.944 35.7117 12.488C35.4957 12.032 35.1917 11.68 34.7997 11.432C34.4077 11.176 33.9397 11.048 33.3957 11.048C32.8597 11.048 32.3917 11.176 31.9917 11.432C31.5997 11.68 31.2957 12.032 31.0797 12.488C30.8637 12.944 30.7557 13.484 30.7557 14.108C30.7557 14.732 30.8637 15.276 31.0797 15.74C31.2957 16.196 31.5997 16.548 31.9917 16.796C32.3917 17.044 32.8597 17.168 33.3957 17.168C33.9397 17.168 34.4077 17.044 34.7997 16.796C35.1917 16.54 35.4957 16.184 35.7117 15.728C35.9277 15.264 36.0357 14.724 36.0357 14.108ZM41.3477 19.34H53.3477V7.34H41.3477V19.34Z" fill="#B7C3D6"/>
</svg>
