<svg width="16" height="17" viewBox="0 0 16 17" fill="none" xmlns="http://www.w3.org/2000/svg">
<path d="M7.33203 1.83203H5.9987C2.66536 1.83203 1.33203 3.16536 1.33203 6.4987V10.4987C1.33203 13.832 2.66536 15.1654 5.9987 15.1654H9.9987C13.332 15.1654 14.6654 13.832 14.6654 10.4987V9.16536" stroke="#4790FF" stroke-width="1.5" stroke-linecap="round" stroke-linejoin="round"/>
<path d="M10.6933 2.51155L5.43992 7.76488C5.23992 7.96488 5.03992 8.35822 4.99992 8.64488L4.71325 10.6515C4.60659 11.3782 5.11992 11.8849 5.84659 11.7849L7.85325 11.4982C8.13325 11.4582 8.52659 11.2582 8.73325 11.0582L13.9866 5.80488C14.8933 4.89822 15.3199 3.84488 13.9866 2.51155C12.6533 1.17822 11.5999 1.60488 10.6933 2.51155Z" stroke="#4790FF" stroke-width="1.5" stroke-miterlimit="10" stroke-linecap="round" stroke-linejoin="round"/>
<path d="M9.94141 3.26562C10.3881 4.85896 11.6347 6.10562 13.2347 6.55896" stroke="#4790FF" stroke-width="1.5" stroke-miterlimit="10" stroke-linecap="round" stroke-linejoin="round"/>
</svg>
