<svg width="17" height="17" viewBox="0 0 17 17" fill="none" xmlns="http://www.w3.org/2000/svg">
<path d="M8.49675 15.1654C12.1786 15.1654 15.1634 12.1806 15.1634 8.4987C15.1634 4.8168 12.1786 1.83203 8.49675 1.83203C4.81485 1.83203 1.83008 4.8168 1.83008 8.4987C1.83008 12.1806 4.81485 15.1654 8.49675 15.1654Z" stroke="#B7C3D6" stroke-linecap="round" stroke-linejoin="round"/>
<path d="M5.82982 2.5H6.49648C5.19648 6.39333 5.19648 10.6067 6.49648 14.5H5.82982" stroke="#B7C3D6" stroke-linecap="round" stroke-linejoin="round"/>
<path d="M10.4961 2.5C11.7961 6.39333 11.7961 10.6067 10.4961 14.5" stroke="#B7C3D6" stroke-linecap="round" stroke-linejoin="round"/>
<path d="M2.49609 11.1667V10.5C6.38943 11.8 10.6028 11.8 14.4961 10.5V11.1667" stroke="#B7C3D6" stroke-linecap="round" stroke-linejoin="round"/>
<path d="M2.49609 6.49844C6.38943 5.19844 10.6028 5.19844 14.4961 6.49844" stroke="#B7C3D6" stroke-linecap="round" stroke-linejoin="round"/>
</svg>
