<svg width="18" height="18" viewBox="0 0 18 18" fill="none" xmlns="http://www.w3.org/2000/svg">
<path d="M6.60758 1.5L3.89258 4.2225" stroke="#9CA5B3" stroke-width="1.5" stroke-miterlimit="10" stroke-linecap="round" stroke-linejoin="round"/>
<path d="M11.3926 1.5L14.1076 4.2225" stroke="#9CA5B3" stroke-width="1.5" stroke-miterlimit="10" stroke-linecap="round" stroke-linejoin="round"/>
<path d="M1.5 5.88672C1.5 4.49922 2.2425 4.38672 3.165 4.38672H14.835C15.7575 4.38672 16.5 4.49922 16.5 5.88672C16.5 7.49922 15.7575 7.38672 14.835 7.38672H3.165C2.2425 7.38672 1.5 7.49922 1.5 5.88672Z" stroke="#9CA5B3" stroke-width="1.5"/>
<path d="M7.32031 10.5V13.1625" stroke="#9CA5B3" stroke-width="1.5" stroke-linecap="round"/>
<path d="M10.7695 10.5V13.1625" stroke="#9CA5B3" stroke-width="1.5" stroke-linecap="round"/>
<path d="M2.625 7.5L3.6825 13.98C3.9225 15.435 4.5 16.5 6.645 16.5H11.1675C13.5 16.5 13.845 15.48 14.115 14.07L15.375 7.5" stroke="#9CA5B3" stroke-width="1.5" stroke-linecap="round"/>
</svg>
