<svg width="12" height="12" viewBox="0 0 12 12" fill="none" xmlns="http://www.w3.org/2000/svg">
<path d="M9.02 6.77499C8.81 6.97999 8.69 7.275 8.72 7.59C8.765 8.13 9.26 8.52499 9.8 8.52499H10.75V9.12C10.75 10.155 9.905 11 8.87 11H3.13C2.095 11 1.25 10.155 1.25 9.12V5.755C1.25 4.72 2.095 3.875 3.13 3.875H8.87C9.905 3.875 10.75 4.72 10.75 5.755V6.47501H9.74C9.46 6.47501 9.205 6.58499 9.02 6.77499Z" stroke="#4790FF" stroke-linecap="round" stroke-linejoin="round"/>
<path d="M1.25 6.20564V3.92066C1.25 3.32566 1.615 2.79564 2.17 2.58564L6.14 1.08564C6.76 0.85064 7.425 1.31066 7.425 1.97566V3.87565" stroke="#4790FF" stroke-linecap="round" stroke-linejoin="round"/>
<path d="M11.2794 6.98654V8.01657C11.2794 8.29157 11.0594 8.51655 10.7794 8.52655H9.79941C9.25941 8.52655 8.76441 8.13155 8.71941 7.59155C8.68941 7.27655 8.80941 6.98155 9.01941 6.77655C9.20441 6.58655 9.45941 6.47656 9.73941 6.47656H10.7794C11.0594 6.48656 11.2794 6.71154 11.2794 6.98654Z" stroke="#4790FF" stroke-linecap="round" stroke-linejoin="round"/>
<path d="M3.5 6H7" stroke="#4790FF" stroke-linecap="round" stroke-linejoin="round"/>
</svg>
