<svg width="18" height="18" viewBox="0 0 18 18" fill="none" xmlns="http://www.w3.org/2000/svg">
<path d="M9.01494 2.18359C6.53244 2.18359 4.51494 4.20109 4.51494 6.68359V8.85109C4.51494 9.30859 4.31994 10.0061 4.08744 10.3961L3.22494 11.8286C2.69244 12.7136 3.05994 13.6961 4.03494 14.0261C7.26744 15.1061 10.7549 15.1061 13.9874 14.0261C14.8949 13.7261 15.2924 12.6536 14.7974 11.8286L13.9349 10.3961C13.7099 10.0061 13.5149 9.30859 13.5149 8.85109V6.68359C13.5149 4.20859 11.4899 2.18359 9.01494 2.18359Z" stroke="#9CA5B3" stroke-width="1.5" stroke-miterlimit="10" stroke-linecap="round"/>
<path d="M10.402 2.39812C10.1695 2.33062 9.92945 2.27812 9.68195 2.24812C8.96195 2.15812 8.27195 2.21062 7.62695 2.39812C7.84445 1.84312 8.38445 1.45312 9.01445 1.45312C9.64445 1.45312 10.1845 1.84312 10.402 2.39812Z" stroke="#9CA5B3" stroke-width="1.5" stroke-miterlimit="10" stroke-linecap="round" stroke-linejoin="round"/>
<path d="M11.2656 14.2969C11.2656 15.5344 10.2531 16.5469 9.01562 16.5469C8.40063 16.5469 7.83062 16.2919 7.42562 15.8869C7.02062 15.4819 6.76562 14.9119 6.76562 14.2969" stroke="#9CA5B3" stroke-width="1.5" stroke-miterlimit="10"/>
</svg>
