<svg width="18" height="19" viewBox="0 0 18 19" fill="none" xmlns="http://www.w3.org/2000/svg">
<path d="M14.895 6.56671C14.895 6.88171 14.8725 7.18921 14.835 7.48171C14.49 7.33171 14.115 7.24921 13.7175 7.24921C12.8025 7.24921 11.9925 7.69171 11.49 8.36671C10.98 7.69171 10.17 7.24921 9.255 7.24921C7.7175 7.24921 6.4725 8.50171 6.4725 10.0542C6.4725 12.0642 7.5375 13.6017 8.7225 14.6442C8.685 14.6667 8.64751 14.6742 8.61001 14.6892C8.38501 14.7717 8.01 14.7717 7.785 14.6892C5.8425 14.0217 1.5 11.2617 1.5 6.56671C1.5 4.49671 3.16499 2.82422 5.21999 2.82422C6.44249 2.82422 7.52249 3.40921 8.19749 4.31671C8.87999 3.40921 9.96 2.82422 11.175 2.82422C13.23 2.82422 14.895 4.49671 14.895 6.56671Z" stroke="#4790FF" stroke-width="1.5" stroke-linecap="round" stroke-linejoin="round"/>
<path d="M16.5002 10.055C16.5002 13.565 13.2527 15.635 11.7977 16.13C11.6252 16.19 11.3476 16.19 11.1751 16.13C10.5526 15.92 9.60016 15.4175 8.72266 14.645C7.53766 13.6025 6.47266 12.065 6.47266 10.055C6.47266 8.50249 7.71765 7.25 9.25515 7.25C10.1701 7.25 10.9802 7.69249 11.4902 8.36749C11.9927 7.69249 12.8027 7.25 13.7177 7.25C14.1152 7.25 14.4902 7.3325 14.8352 7.4825C15.8177 7.9175 16.5002 8.89999 16.5002 10.055Z" stroke="#4790FF" stroke-width="1.5" stroke-linecap="round" stroke-linejoin="round"/>
</svg>
