<svg width="16" height="16" viewBox="0 0 16 16" fill="none" xmlns="http://www.w3.org/2000/svg">
<path d="M5.8125 12.375H5.5C3 12.375 1.75 11.75 1.75 8.625V5.5C1.75 3 3 1.75 5.5 1.75H10.5C13 1.75 14.25 3 14.25 5.5V8.625C14.25 11.125 13 12.375 10.5 12.375H10.1875C9.99375 12.375 9.80625 12.4688 9.6875 12.625L8.75 13.875C8.3375 14.425 7.6625 14.425 7.25 13.875L6.3125 12.625C6.2125 12.4875 5.98125 12.375 5.8125 12.375Z" stroke="white" stroke-miterlimit="10" stroke-linecap="round" stroke-linejoin="round"/>
<path d="M4.875 5.5H11.125" stroke="white" stroke-linecap="round" stroke-linejoin="round"/>
<path d="M4.875 8.625H8.625" stroke="white" stroke-linecap="round" stroke-linejoin="round"/>
</svg>
