<svg width="18" height="19" viewBox="0 0 18 19" fill="none" xmlns="http://www.w3.org/2000/svg">
<path d="M6.375 14.75H6C3 14.75 1.5 14 1.5 10.25V6.5C1.5 3.5 3 2 6 2H12C15 2 16.5 3.5 16.5 6.5V10.25C16.5 13.25 15 14.75 12 14.75H11.625C11.3925 14.75 11.1675 14.8625 11.025 15.05L9.9 16.55C9.405 17.21 8.595 17.21 8.1 16.55L6.975 15.05C6.855 14.885 6.5775 14.75 6.375 14.75Z" stroke="#4790FF" stroke-width="1.5" stroke-miterlimit="10" stroke-linecap="round" stroke-linejoin="round"/>
<path d="M5.25 6.5H12.75" stroke="#4790FF" stroke-width="1.5" stroke-linecap="round" stroke-linejoin="round"/>
<path d="M5.25 10.25H9.75" stroke="#4790FF" stroke-width="1.5" stroke-linecap="round" stroke-linejoin="round"/>
</svg>
