<svg width="18" height="18" viewBox="0 0 18 18" fill="none" xmlns="http://www.w3.org/2000/svg">
<path d="M6.75 16.5H11.25C15 16.5 16.5 15 16.5 11.25V6.75C16.5 3 15 1.5 11.25 1.5H6.75C3 1.5 1.5 3 1.5 6.75V11.25C1.5 15 3 16.5 6.75 16.5Z" stroke="white" stroke-width="1.125" stroke-linecap="round" stroke-linejoin="round"/>
<path d="M5.25 6.5625C6 5.8125 7.2225 5.8125 7.98 6.5625" stroke="white" stroke-width="1.125" stroke-miterlimit="10" stroke-linecap="round" stroke-linejoin="round"/>
<path d="M10.0195 6.5625C10.7695 5.8125 11.992 5.8125 12.7495 6.5625" stroke="white" stroke-width="1.125" stroke-miterlimit="10" stroke-linecap="round" stroke-linejoin="round"/>
<path d="M6.3 13.2766H11.7C12.075 13.2766 12.375 12.9766 12.375 12.6016C12.375 10.7341 10.8675 9.22656 9 9.22656C7.1325 9.22656 5.625 10.7341 5.625 12.6016C5.625 12.9766 5.925 13.2766 6.3 13.2766Z" stroke="white" stroke-width="1.125" stroke-miterlimit="10" stroke-linecap="round" stroke-linejoin="round"/>
</svg>
