<svg width="19" height="19" viewBox="0 0 19 19" fill="none" xmlns="http://www.w3.org/2000/svg">
<path d="M7.12565 17.4154H11.8757C15.834 17.4154 17.4173 15.832 17.4173 11.8737V7.1237C17.4173 3.16536 15.834 1.58203 11.8757 1.58203H7.12565C3.16732 1.58203 1.58398 3.16536 1.58398 7.1237V11.8737C1.58398 15.832 3.16732 17.4154 7.12565 17.4154Z" stroke="#9CA5B3" stroke-width="1.5" stroke-linecap="round" stroke-linejoin="round"/>
<path d="M7.12435 7.91667C7.9988 7.91667 8.70768 7.20778 8.70768 6.33333C8.70768 5.45888 7.9988 4.75 7.12435 4.75C6.2499 4.75 5.54102 5.45888 5.54102 6.33333C5.54102 7.20778 6.2499 7.91667 7.12435 7.91667Z" stroke="#9CA5B3" stroke-width="1.5" stroke-linecap="round" stroke-linejoin="round"/>
<path d="M2.11328 15.0002L6.0162 12.3797C6.64161 11.9602 7.54411 12.0077 8.1062 12.4906L8.36745 12.7202C8.98495 13.2506 9.98245 13.2506 10.5999 12.7202L13.8933 9.89391C14.5108 9.36349 15.5083 9.36349 16.1258 9.89391L17.4162 11.0022" stroke="#9CA5B3" stroke-width="1.5" stroke-linecap="round" stroke-linejoin="round"/>
</svg>
