<svg width="18" height="18" viewBox="0 0 18 18" fill="none" xmlns="http://www.w3.org/2000/svg">
<path d="M6.75 16.5H11.25C15 16.5 16.5 15 16.5 11.25V6.75C16.5 3 15 1.5 11.25 1.5H6.75C3 1.5 1.5 3 1.5 6.75V11.25C1.5 15 3 16.5 6.75 16.5Z" stroke="white" stroke-width="1.125" stroke-linecap="round" stroke-linejoin="round"/>
<path d="M11.625 7.3125C12.2463 7.3125 12.75 6.80882 12.75 6.1875C12.75 5.56618 12.2463 5.0625 11.625 5.0625C11.0037 5.0625 10.5 5.56618 10.5 6.1875C10.5 6.80882 11.0037 7.3125 11.625 7.3125Z" stroke="white" stroke-width="1.125" stroke-miterlimit="10" stroke-linecap="round" stroke-linejoin="round"/>
<path d="M6.375 7.3125C6.99632 7.3125 7.5 6.80882 7.5 6.1875C7.5 5.56618 6.99632 5.0625 6.375 5.0625C5.75368 5.0625 5.25 5.56618 5.25 6.1875C5.25 6.80882 5.75368 7.3125 6.375 7.3125Z" stroke="white" stroke-width="1.125" stroke-miterlimit="10" stroke-linecap="round" stroke-linejoin="round"/>
<path d="M6.3 9.97656H11.7C12.075 9.97656 12.375 10.2766 12.375 10.6516C12.375 12.5191 10.8675 14.0266 9 14.0266C7.1325 14.0266 5.625 12.5191 5.625 10.6516C5.625 10.2766 5.925 9.97656 6.3 9.97656Z" stroke="white" stroke-width="1.125" stroke-miterlimit="10" stroke-linecap="round" stroke-linejoin="round"/>
</svg>
