<svg width="19" height="19" viewBox="0 0 19 19" fill="none" xmlns="http://www.w3.org/2000/svg">
<path d="M3.30155 12.112L6.8878 15.6983C8.3603 17.1708 10.7511 17.1708 12.2316 15.6983L15.707 12.2229C17.1795 10.7504 17.1795 8.35952 15.707 6.8791L12.1128 3.30077C11.3607 2.54869 10.3236 2.14494 9.2628 2.20035L5.30447 2.39035C3.72113 2.4616 2.46238 3.72035 2.38322 5.29577L2.19322 9.2541C2.14572 10.3229 2.54947 11.3599 3.30155 12.112Z" stroke="#575E6A" stroke-width="1.5" stroke-linecap="round" stroke-linejoin="round"/>
<path d="M7.52018 9.5013C8.61325 9.5013 9.49935 8.6152 9.49935 7.52214C9.49935 6.42907 8.61325 5.54297 7.52018 5.54297C6.42712 5.54297 5.54102 6.42907 5.54102 7.52214C5.54102 8.6152 6.42712 9.5013 7.52018 9.5013Z" stroke="#575E6A" stroke-width="1.5" stroke-linecap="round"/>
</svg>
