<svg width="56" height="25" viewBox="0 0 56 25" fill="none" xmlns="http://www.w3.org/2000/svg">
<rect width="56" height="25" rx="12.5" fill="#4790FF"/>
<path d="M11.008 8.728V17.5H9.472V8.728H11.008ZM12.94 14.476H10.636V13.108H12.616C13.144 13.108 13.544 12.976 13.816 12.712C14.096 12.44 14.236 12.064 14.236 11.584C14.236 11.104 14.096 10.736 13.816 10.48C13.544 10.224 13.152 10.096 12.64 10.096H10.492V8.728H12.94C13.532 8.728 14.044 8.848 14.476 9.088C14.908 9.328 15.244 9.664 15.484 10.096C15.724 10.52 15.844 11.02 15.844 11.596C15.844 12.156 15.724 12.656 15.484 13.096C15.244 13.528 14.908 13.868 14.476 14.116C14.044 14.356 13.532 14.476 12.94 14.476ZM18.6721 17.5H17.1361V8.728H20.4841C21.4761 8.728 22.2481 8.968 22.8001 9.448C23.3601 9.928 23.6401 10.6 23.6401 11.464C23.6401 12.048 23.5041 12.548 23.2321 12.964C22.9681 13.372 22.5761 13.684 22.0561 13.9L23.7241 17.5H22.0441L20.5561 14.224H18.6721V17.5ZM18.6721 10.096V12.868H20.4841C20.9721 12.868 21.3521 12.744 21.6241 12.496C21.8961 12.248 22.0321 11.904 22.0321 11.464C22.0321 11.024 21.8961 10.688 21.6241 10.456C21.3521 10.216 20.9721 10.096 20.4841 10.096H18.6721ZM33.1437 13.108C33.1437 13.996 32.9637 14.784 32.6037 15.472C32.2437 16.152 31.7437 16.684 31.1037 17.068C30.4637 17.452 29.7237 17.644 28.8837 17.644C28.0517 17.644 27.3157 17.452 26.6757 17.068C26.0357 16.684 25.5357 16.152 25.1757 15.472C24.8237 14.792 24.6477 14.008 24.6477 13.12C24.6477 12.224 24.8277 11.436 25.1877 10.756C25.5477 10.068 26.0437 9.532 26.6757 9.148C27.3157 8.764 28.0557 8.572 28.8957 8.572C29.7357 8.572 30.4717 8.764 31.1037 9.148C31.7437 9.532 32.2437 10.064 32.6037 10.744C32.9637 11.424 33.1437 12.212 33.1437 13.108ZM31.5357 13.108C31.5357 12.484 31.4277 11.944 31.2117 11.488C30.9957 11.032 30.6917 10.68 30.2997 10.432C29.9077 10.176 29.4397 10.048 28.8957 10.048C28.3597 10.048 27.8917 10.176 27.4917 10.432C27.0997 10.68 26.7957 11.032 26.5797 11.488C26.3637 11.944 26.2557 12.484 26.2557 13.108C26.2557 13.732 26.3637 14.276 26.5797 14.74C26.7957 15.196 27.0997 15.548 27.4917 15.796C27.8917 16.044 28.3597 16.168 28.8957 16.168C29.4397 16.168 29.9077 16.044 30.2997 15.796C30.6917 15.54 30.9957 15.184 31.2117 14.728C31.4277 14.264 31.5357 13.724 31.5357 13.108Z" fill="white"/>
<g clip-path="url(#clip0_5016_10915)">
<path d="M42.0007 7.08594L43.6744 10.4768L47.4173 11.0239L44.709 13.6618L45.3482 17.3884L42.0007 15.628L38.6532 17.3884L39.2923 13.6618L36.584 11.0239L40.3269 10.4768L42.0007 7.08594Z" fill="white"/>
</g>
<defs>
<clipPath id="clip0_5016_10915">
<rect width="11" height="11" fill="white" transform="translate(36.5 7)"/>
</clipPath>
</defs>
</svg>
