<svg width="41" height="13" viewBox="0 0 41 13" fill="none" xmlns="http://www.w3.org/2000/svg">
<path d="M2.508 2.728V11.5H0.972V2.728H2.508ZM4.44 8.476H2.136V7.108H4.116C4.644 7.108 5.044 6.976 5.316 6.712C5.596 6.44 5.736 6.064 5.736 5.584C5.736 5.104 5.596 4.736 5.316 4.48C5.044 4.224 4.652 4.096 4.14 4.096H1.992V2.728H4.44C5.032 2.728 5.544 2.848 5.976 3.088C6.408 3.328 6.744 3.664 6.984 4.096C7.224 4.52 7.344 5.02 7.344 5.596C7.344 6.156 7.224 6.656 6.984 7.096C6.744 7.528 6.408 7.868 5.976 8.116C5.544 8.356 5.032 8.476 4.44 8.476ZM10.1721 11.5H8.63606V2.728H11.9841C12.9761 2.728 13.7481 2.968 14.3001 3.448C14.8601 3.928 15.1401 4.6 15.1401 5.464C15.1401 6.048 15.0041 6.548 14.7321 6.964C14.4681 7.372 14.0761 7.684 13.5561 7.9L15.2241 11.5H13.5441L12.0561 8.224H10.1721V11.5ZM10.1721 4.096V6.868H11.9841C12.4721 6.868 12.8521 6.744 13.1241 6.496C13.3961 6.248 13.5321 5.904 13.5321 5.464C13.5321 5.024 13.3961 4.688 13.1241 4.456C12.8521 4.216 12.4721 4.096 11.9841 4.096H10.1721ZM24.6437 7.108C24.6437 7.996 24.4637 8.784 24.1037 9.472C23.7437 10.152 23.2437 10.684 22.6037 11.068C21.9637 11.452 21.2237 11.644 20.3837 11.644C19.5517 11.644 18.8157 11.452 18.1757 11.068C17.5357 10.684 17.0357 10.152 16.6757 9.472C16.3237 8.792 16.1477 8.008 16.1477 7.12C16.1477 6.224 16.3277 5.436 16.6877 4.756C17.0477 4.068 17.5437 3.532 18.1757 3.148C18.8157 2.764 19.5557 2.572 20.3957 2.572C21.2357 2.572 21.9717 2.764 22.6037 3.148C23.2437 3.532 23.7437 4.064 24.1037 4.744C24.4637 5.424 24.6437 6.212 24.6437 7.108ZM23.0357 7.108C23.0357 6.484 22.9277 5.944 22.7117 5.488C22.4957 5.032 22.1917 4.68 21.7997 4.432C21.4077 4.176 20.9397 4.048 20.3957 4.048C19.8597 4.048 19.3917 4.176 18.9917 4.432C18.5997 4.68 18.2957 5.032 18.0797 5.488C17.8637 5.944 17.7557 6.484 17.7557 7.108C17.7557 7.732 17.8637 8.276 18.0797 8.74C18.2957 9.196 18.5997 9.548 18.9917 9.796C19.3917 10.044 19.8597 10.168 20.3957 10.168C20.9397 10.168 21.4077 10.044 21.7997 9.796C22.1917 9.54 22.4957 9.184 22.7117 8.728C22.9277 8.264 23.0357 7.724 23.0357 7.108ZM28.3477 12.34H40.3477V0.34H28.3477V12.34Z" fill="#B7C3D6"/>
</svg>
