<svg width="16" height="16" viewBox="0 0 16 16" fill="none" xmlns="http://www.w3.org/2000/svg">
<path d="M11.3125 8.16797V11.168C11.3125 13.668 10.3125 14.668 7.8125 14.668H4.8125C2.3125 14.668 1.3125 13.668 1.3125 11.168V8.16797C1.3125 5.66797 2.3125 4.66797 4.8125 4.66797H7.8125C10.3125 4.66797 11.3125 5.66797 11.3125 8.16797Z" stroke="#4790FF" stroke-width="1.5" stroke-linecap="round" stroke-linejoin="round"/>
<path d="M14.6473 4.9987C14.6473 6.91203 13.1873 8.4787 11.314 8.64536V8.16536C11.314 5.66536 10.314 4.66536 7.81398 4.66536H7.33398C7.50065 2.79203 9.06732 1.33203 10.9807 1.33203C12.8406 1.33203 14.374 2.71203 14.6073 4.51203C14.634 4.66536 14.6473 4.83203 14.6473 4.9987Z" stroke="#4790FF" stroke-width="1.5" stroke-linecap="round" stroke-linejoin="round"/>
</svg>
