<svg width="19" height="19" viewBox="0 0 19 19" fill="none" xmlns="http://www.w3.org/2000/svg">
<path d="M13.4355 9.69922V13.2617C13.4355 16.2305 12.248 17.418 9.2793 17.418H5.7168C2.74805 17.418 1.56055 16.2305 1.56055 13.2617V9.69922C1.56055 6.73047 2.74805 5.54297 5.7168 5.54297H9.2793C12.248 5.54297 13.4355 6.73047 13.4355 9.69922Z" stroke="#9CA5B3" stroke-width="1.5" stroke-linecap="round" stroke-linejoin="round"/>
<path d="M17.3936 5.9362C17.3936 8.20828 15.6598 10.0687 13.4352 10.2666V9.69661C13.4352 6.72786 12.2477 5.54036 9.27898 5.54036H8.70898C8.9069 3.31578 10.7673 1.58203 13.0394 1.58203C15.2482 1.58203 17.069 3.22078 17.3461 5.35828C17.3777 5.54036 17.3936 5.73828 17.3936 5.9362Z" stroke="#9CA5B3" stroke-width="1.5" stroke-linecap="round" stroke-linejoin="round"/>
</svg>
