<svg width="19" height="19" viewBox="0 0 19 19" fill="none" xmlns="http://www.w3.org/2000/svg">
<path d="M6.72982 15.0404H6.33398C3.16732 15.0404 1.58398 14.2487 1.58398 10.2904V6.33203C1.58398 3.16536 3.16732 1.58203 6.33398 1.58203H12.6673C15.834 1.58203 17.4173 3.16536 17.4173 6.33203V10.2904C17.4173 13.457 15.834 15.0404 12.6673 15.0404H12.2715C12.0261 15.0404 11.7886 15.1591 11.6382 15.357L10.4507 16.9404C9.92815 17.637 9.07315 17.637 8.55065 16.9404L7.36315 15.357C7.23648 15.1829 6.94357 15.0404 6.72982 15.0404Z" stroke="#9CA5B3" stroke-width="1.5" stroke-miterlimit="10" stroke-linecap="round" stroke-linejoin="round"/>
<path d="M5.54102 6.33203H13.4577" stroke="#9CA5B3" stroke-width="1.5" stroke-linecap="round" stroke-linejoin="round"/>
<path d="M5.54102 10.293H10.291" stroke="#9CA5B3" stroke-width="1.5" stroke-linecap="round" stroke-linejoin="round"/>
</svg>
