<svg width="35" height="35" viewBox="0 0 35 35" fill="none" xmlns="http://www.w3.org/2000/svg">
<path d="M20.5234 2.52731L23.603 8.73753C24.023 9.60202 25.1429 10.4312 26.0877 10.59L31.6696 11.5251C35.2392 12.1249 36.0791 14.736 33.5069 17.3119L29.1674 21.6872C28.4325 22.4282 28.03 23.8573 28.2575 24.8806L29.4999 30.2969C30.4798 34.584 28.2225 36.2425 24.4604 34.0018L19.2285 30.8791C18.2836 30.3145 16.7263 30.3145 15.7639 30.8791L10.532 34.0018C6.78738 36.2425 4.51263 34.5664 5.49253 30.2969L6.73489 24.8806C6.96236 23.8573 6.55991 22.4282 5.82499 21.6872L1.48547 17.3119C-1.06925 14.736 -0.24684 12.1249 3.32277 11.5251L8.90465 10.59C9.83205 10.4312 10.9519 9.60202 11.3719 8.73753L14.4515 2.52731C16.1313 -0.842437 18.861 -0.842437 20.5234 2.52731Z" fill="#FFD600"/>
</svg>
