<svg width="16" height="16" viewBox="0 0 16 16" fill="none" xmlns="http://www.w3.org/2000/svg">
<path d="M2.78025 10.1986L5.80025 13.2186C7.04025 14.4586 9.05359 14.4586 10.3003 13.2186L13.2269 10.2919C14.4669 9.0519 14.4669 7.03857 13.2269 5.7919L10.2003 2.77857C9.56692 2.14523 8.69359 1.80523 7.80025 1.8519L4.46692 2.0119C3.13359 2.0719 2.07359 3.1319 2.00692 4.45857L1.84692 7.7919C1.80692 8.6919 2.14692 9.56523 2.78025 10.1986Z" stroke="#575E6A" stroke-width="1.5" stroke-linecap="round" stroke-linejoin="round"/>
<path d="M6.33268 8.0013C7.25316 8.0013 7.99935 7.25511 7.99935 6.33464C7.99935 5.41416 7.25316 4.66797 6.33268 4.66797C5.41221 4.66797 4.66602 5.41416 4.66602 6.33464C4.66602 7.25511 5.41221 8.0013 6.33268 8.0013Z" stroke="#575E6A" stroke-width="1.5" stroke-linecap="round"/>
</svg>
