<svg width="18" height="18" viewBox="0 0 18 18" fill="none" xmlns="http://www.w3.org/2000/svg">
<path d="M15.8111 6.43503V11.565C15.8111 12.405 15.3611 13.185 14.6336 13.6125L10.1786 16.185C9.45109 16.605 8.55109 16.605 7.81609 16.185L3.36109 13.6125C2.63359 13.1925 2.18359 12.4125 2.18359 11.565V6.43503C2.18359 5.59503 2.63359 4.81499 3.36109 4.38749L7.81609 1.815C8.54359 1.395 9.44359 1.395 10.1786 1.815L14.6336 4.38749C15.3611 4.81499 15.8111 5.58753 15.8111 6.43503Z" stroke="#4790FF" stroke-width="1.5" stroke-linecap="round" stroke-linejoin="round"/>
<path d="M9.00141 8.24889C9.96652 8.24889 10.7489 7.46649 10.7489 6.50137C10.7489 5.53626 9.96652 4.75391 9.00141 4.75391C8.03629 4.75391 7.25391 5.53626 7.25391 6.50137C7.25391 7.46649 8.03629 8.24889 9.00141 8.24889Z" stroke="#4790FF" stroke-width="1.5" stroke-linecap="round" stroke-linejoin="round"/>
<path d="M12 12.4957C12 11.1457 10.6575 10.0508 9 10.0508C7.3425 10.0508 6 11.1457 6 12.4957" stroke="#4790FF" stroke-width="1.5" stroke-linecap="round" stroke-linejoin="round"/>
</svg>
