<svg width="12" height="12" viewBox="0 0 12 12" fill="none" xmlns="http://www.w3.org/2000/svg">
<path d="M7.79094 6.00094C7.79094 6.99094 6.99094 7.79094 6.00094 7.79094C5.01094 7.79094 4.21094 6.99094 4.21094 6.00094C4.21094 5.01094 5.01094 4.21094 6.00094 4.21094C6.99094 4.21094 7.79094 5.01094 7.79094 6.00094Z" stroke="#575E6A" stroke-linecap="round" stroke-linejoin="round"/>
<path d="M5.99992 10.1344C7.76492 10.1344 9.40992 9.09437 10.5549 7.29437C11.0049 6.58937 11.0049 5.40437 10.5549 4.69937C9.40992 2.89937 7.76492 1.85938 5.99992 1.85938C4.23492 1.85938 2.58992 2.89937 1.44492 4.69937C0.994922 5.40437 0.994922 6.58937 1.44492 7.29437C2.58992 9.09437 4.23492 10.1344 5.99992 10.1344Z" stroke="#575E6A" stroke-linecap="round" stroke-linejoin="round"/>
</svg>
